<mxfile host="app.diagrams.net" agent="Mozilla/5.0 (Windows NT 10.0; Win64; x64; rv:133.0) Gecko/20100101 Firefox/133.0" version="24.7.16">
  <diagram name="Page-1" id="OQfO04UxqhczUUQxj_E3">
    <mxGraphModel dx="922" dy="428" grid="1" gridSize="10" guides="1" tooltips="1" connect="1" arrows="1" fold="1" page="1" pageScale="1" pageWidth="850" pageHeight="1100" math="0" shadow="0">
      <root>
        <mxCell id="0" />
        <mxCell id="1" parent="0" />
        <mxCell id="0O328Vj98qlbeWY49ReV-6" value="" style="whiteSpace=wrap;html=1;aspect=fixed;" parent="1" vertex="1">
          <mxGeometry x="270" y="100" width="360" height="360" as="geometry" />
        </mxCell>
        <mxCell id="0O328Vj98qlbeWY49ReV-46" style="edgeStyle=orthogonalEdgeStyle;rounded=0;orthogonalLoop=1;jettySize=auto;html=1;entryX=1;entryY=0.5;entryDx=0;entryDy=0;" parent="1" source="0O328Vj98qlbeWY49ReV-1" target="0O328Vj98qlbeWY49ReV-7" edge="1">
          <mxGeometry relative="1" as="geometry" />
        </mxCell>
        <mxCell id="0O328Vj98qlbeWY49ReV-1" value="&lt;div&gt;Product&lt;/div&gt;&lt;div&gt;MS&lt;br&gt;&lt;/div&gt;" style="whiteSpace=wrap;html=1;aspect=fixed;" parent="1" vertex="1">
          <mxGeometry x="465" y="120" width="60" height="60" as="geometry" />
        </mxCell>
        <mxCell id="0O328Vj98qlbeWY49ReV-47" style="edgeStyle=orthogonalEdgeStyle;rounded=0;orthogonalLoop=1;jettySize=auto;html=1;entryX=1;entryY=0.5;entryDx=0;entryDy=0;" parent="1" source="0O328Vj98qlbeWY49ReV-2" target="0O328Vj98qlbeWY49ReV-7" edge="1">
          <mxGeometry relative="1" as="geometry" />
        </mxCell>
        <mxCell id="0O328Vj98qlbeWY49ReV-2" value="&lt;div&gt;Payment&lt;/div&gt;&lt;div&gt;MS&lt;br&gt;&lt;/div&gt;" style="whiteSpace=wrap;html=1;aspect=fixed;" parent="1" vertex="1">
          <mxGeometry x="465" y="205" width="60" height="60" as="geometry" />
        </mxCell>
        <mxCell id="0O328Vj98qlbeWY49ReV-49" style="edgeStyle=orthogonalEdgeStyle;rounded=0;orthogonalLoop=1;jettySize=auto;html=1;entryX=1;entryY=0.5;entryDx=0;entryDy=0;" parent="1" source="0O328Vj98qlbeWY49ReV-3" target="0O328Vj98qlbeWY49ReV-7" edge="1">
          <mxGeometry relative="1" as="geometry" />
        </mxCell>
        <mxCell id="0O328Vj98qlbeWY49ReV-3" value="&lt;div&gt;Cart&lt;/div&gt;&lt;div&gt;MS&lt;br&gt;&lt;/div&gt;&amp;nbsp;(includes offers)" style="whiteSpace=wrap;html=1;aspect=fixed;" parent="1" vertex="1">
          <mxGeometry x="460" y="365" width="70" height="70" as="geometry" />
        </mxCell>
        <mxCell id="0O328Vj98qlbeWY49ReV-48" style="edgeStyle=orthogonalEdgeStyle;rounded=0;orthogonalLoop=1;jettySize=auto;html=1;entryX=1;entryY=0.5;entryDx=0;entryDy=0;" parent="1" source="0O328Vj98qlbeWY49ReV-5" target="0O328Vj98qlbeWY49ReV-7" edge="1">
          <mxGeometry relative="1" as="geometry" />
        </mxCell>
        <mxCell id="0O328Vj98qlbeWY49ReV-5" value="&lt;div&gt;Order&lt;/div&gt;&lt;div&gt;MS&lt;br&gt;&lt;/div&gt;" style="whiteSpace=wrap;html=1;aspect=fixed;" parent="1" vertex="1">
          <mxGeometry x="465" y="285" width="60" height="60" as="geometry" />
        </mxCell>
        <mxCell id="0O328Vj98qlbeWY49ReV-40" style="edgeStyle=orthogonalEdgeStyle;rounded=0;orthogonalLoop=1;jettySize=auto;html=1;entryX=0;entryY=0.5;entryDx=0;entryDy=0;" parent="1" source="0O328Vj98qlbeWY49ReV-7" target="0O328Vj98qlbeWY49ReV-1" edge="1">
          <mxGeometry relative="1" as="geometry" />
        </mxCell>
        <mxCell id="0O328Vj98qlbeWY49ReV-41" style="edgeStyle=orthogonalEdgeStyle;rounded=0;orthogonalLoop=1;jettySize=auto;html=1;entryX=0;entryY=0.5;entryDx=0;entryDy=0;" parent="1" source="0O328Vj98qlbeWY49ReV-7" target="0O328Vj98qlbeWY49ReV-2" edge="1">
          <mxGeometry relative="1" as="geometry" />
        </mxCell>
        <mxCell id="0O328Vj98qlbeWY49ReV-44" style="edgeStyle=orthogonalEdgeStyle;rounded=0;orthogonalLoop=1;jettySize=auto;html=1;entryX=0;entryY=0.5;entryDx=0;entryDy=0;" parent="1" source="0O328Vj98qlbeWY49ReV-7" target="0O328Vj98qlbeWY49ReV-5" edge="1">
          <mxGeometry relative="1" as="geometry" />
        </mxCell>
        <mxCell id="0O328Vj98qlbeWY49ReV-45" style="edgeStyle=orthogonalEdgeStyle;rounded=0;orthogonalLoop=1;jettySize=auto;html=1;entryX=0;entryY=0.5;entryDx=0;entryDy=0;" parent="1" source="0O328Vj98qlbeWY49ReV-7" target="0O328Vj98qlbeWY49ReV-3" edge="1">
          <mxGeometry relative="1" as="geometry" />
        </mxCell>
        <mxCell id="0O328Vj98qlbeWY49ReV-7" value="Registry" style="whiteSpace=wrap;html=1;aspect=fixed;" parent="1" vertex="1">
          <mxGeometry x="320" y="230" width="80" height="80" as="geometry" />
        </mxCell>
        <mxCell id="EOxNQlFkCzPFn4czWksW-6" style="edgeStyle=orthogonalEdgeStyle;rounded=0;orthogonalLoop=1;jettySize=auto;html=1;" parent="1" source="0O328Vj98qlbeWY49ReV-8" target="0O328Vj98qlbeWY49ReV-9" edge="1">
          <mxGeometry relative="1" as="geometry" />
        </mxCell>
        <mxCell id="EOxNQlFkCzPFn4czWksW-7" style="edgeStyle=orthogonalEdgeStyle;rounded=0;orthogonalLoop=1;jettySize=auto;html=1;entryX=0;entryY=0.5;entryDx=0;entryDy=0;" parent="1" source="0O328Vj98qlbeWY49ReV-8" target="0O328Vj98qlbeWY49ReV-7" edge="1">
          <mxGeometry relative="1" as="geometry">
            <mxPoint x="280" y="365" as="targetPoint" />
          </mxGeometry>
        </mxCell>
        <mxCell id="0O328Vj98qlbeWY49ReV-8" value="Gateway" style="whiteSpace=wrap;html=1;aspect=fixed;" parent="1" vertex="1">
          <mxGeometry x="155" y="330" width="80" height="80" as="geometry" />
        </mxCell>
        <mxCell id="EOxNQlFkCzPFn4czWksW-5" style="edgeStyle=orthogonalEdgeStyle;rounded=0;orthogonalLoop=1;jettySize=auto;html=1;entryX=0.5;entryY=1;entryDx=0;entryDy=0;" parent="1" source="0O328Vj98qlbeWY49ReV-9" target="0O328Vj98qlbeWY49ReV-8" edge="1">
          <mxGeometry relative="1" as="geometry" />
        </mxCell>
        <mxCell id="5Lq8C0aKSGUpn-JVYiwc-2" style="edgeStyle=orthogonalEdgeStyle;rounded=0;orthogonalLoop=1;jettySize=auto;html=1;entryX=1;entryY=0.5;entryDx=0;entryDy=0;" edge="1" parent="1" source="0O328Vj98qlbeWY49ReV-9" target="5Lq8C0aKSGUpn-JVYiwc-1">
          <mxGeometry relative="1" as="geometry" />
        </mxCell>
        <mxCell id="0O328Vj98qlbeWY49ReV-9" value="Actor" style="shape=umlActor;verticalLabelPosition=bottom;verticalAlign=top;html=1;outlineConnect=0;" parent="1" vertex="1">
          <mxGeometry x="180" y="520" width="30" height="60" as="geometry" />
        </mxCell>
        <mxCell id="0O328Vj98qlbeWY49ReV-25" style="edgeStyle=orthogonalEdgeStyle;rounded=0;orthogonalLoop=1;jettySize=auto;html=1;entryX=1;entryY=0.5;entryDx=0;entryDy=0;" parent="1" source="0O328Vj98qlbeWY49ReV-14" target="0O328Vj98qlbeWY49ReV-1" edge="1">
          <mxGeometry relative="1" as="geometry" />
        </mxCell>
        <mxCell id="0O328Vj98qlbeWY49ReV-14" value="&lt;div&gt;Product&lt;/div&gt;&lt;div&gt;DB&lt;/div&gt;" style="shape=cylinder3;whiteSpace=wrap;html=1;boundedLbl=1;backgroundOutline=1;size=15;" parent="1" vertex="1">
          <mxGeometry x="690" y="120" width="60" height="60" as="geometry" />
        </mxCell>
        <mxCell id="0O328Vj98qlbeWY49ReV-24" style="edgeStyle=orthogonalEdgeStyle;rounded=0;orthogonalLoop=1;jettySize=auto;html=1;entryX=1;entryY=0.5;entryDx=0;entryDy=0;" parent="1" source="0O328Vj98qlbeWY49ReV-15" target="0O328Vj98qlbeWY49ReV-2" edge="1">
          <mxGeometry relative="1" as="geometry" />
        </mxCell>
        <mxCell id="0O328Vj98qlbeWY49ReV-15" value="&lt;div&gt;Payment&lt;/div&gt;&lt;div&gt;DB&lt;br&gt;&lt;/div&gt;" style="shape=cylinder3;whiteSpace=wrap;html=1;boundedLbl=1;backgroundOutline=1;size=15;" parent="1" vertex="1">
          <mxGeometry x="690" y="205" width="60" height="60" as="geometry" />
        </mxCell>
        <mxCell id="0O328Vj98qlbeWY49ReV-23" style="edgeStyle=orthogonalEdgeStyle;rounded=0;orthogonalLoop=1;jettySize=auto;html=1;entryX=1;entryY=0.5;entryDx=0;entryDy=0;" parent="1" source="0O328Vj98qlbeWY49ReV-16" target="0O328Vj98qlbeWY49ReV-5" edge="1">
          <mxGeometry relative="1" as="geometry" />
        </mxCell>
        <mxCell id="0O328Vj98qlbeWY49ReV-16" value="&lt;div&gt;Order&lt;/div&gt;&lt;div&gt;DB&lt;br&gt;&lt;/div&gt;" style="shape=cylinder3;whiteSpace=wrap;html=1;boundedLbl=1;backgroundOutline=1;size=15;" parent="1" vertex="1">
          <mxGeometry x="690" y="285" width="60" height="60" as="geometry" />
        </mxCell>
        <mxCell id="0O328Vj98qlbeWY49ReV-22" style="edgeStyle=orthogonalEdgeStyle;rounded=0;orthogonalLoop=1;jettySize=auto;html=1;" parent="1" source="0O328Vj98qlbeWY49ReV-17" edge="1">
          <mxGeometry relative="1" as="geometry">
            <mxPoint x="530" y="400" as="targetPoint" />
          </mxGeometry>
        </mxCell>
        <mxCell id="0O328Vj98qlbeWY49ReV-17" value="&lt;div&gt;Cart&lt;/div&gt;&lt;div&gt;DB&lt;br&gt;&lt;/div&gt;" style="shape=cylinder3;whiteSpace=wrap;html=1;boundedLbl=1;backgroundOutline=1;size=15;" parent="1" vertex="1">
          <mxGeometry x="690" y="370" width="60" height="60" as="geometry" />
        </mxCell>
        <mxCell id="0O328Vj98qlbeWY49ReV-18" style="edgeStyle=orthogonalEdgeStyle;rounded=0;orthogonalLoop=1;jettySize=auto;html=1;entryX=0;entryY=0.5;entryDx=0;entryDy=0;entryPerimeter=0;" parent="1" source="0O328Vj98qlbeWY49ReV-1" target="0O328Vj98qlbeWY49ReV-14" edge="1">
          <mxGeometry relative="1" as="geometry" />
        </mxCell>
        <mxCell id="0O328Vj98qlbeWY49ReV-19" style="edgeStyle=orthogonalEdgeStyle;rounded=0;orthogonalLoop=1;jettySize=auto;html=1;entryX=0;entryY=0.5;entryDx=0;entryDy=0;entryPerimeter=0;" parent="1" source="0O328Vj98qlbeWY49ReV-2" target="0O328Vj98qlbeWY49ReV-15" edge="1">
          <mxGeometry relative="1" as="geometry" />
        </mxCell>
        <mxCell id="0O328Vj98qlbeWY49ReV-20" style="edgeStyle=orthogonalEdgeStyle;rounded=0;orthogonalLoop=1;jettySize=auto;html=1;entryX=0;entryY=0.5;entryDx=0;entryDy=0;entryPerimeter=0;" parent="1" source="0O328Vj98qlbeWY49ReV-5" target="0O328Vj98qlbeWY49ReV-16" edge="1">
          <mxGeometry relative="1" as="geometry" />
        </mxCell>
        <mxCell id="0O328Vj98qlbeWY49ReV-21" style="edgeStyle=orthogonalEdgeStyle;rounded=0;orthogonalLoop=1;jettySize=auto;html=1;entryX=0;entryY=0.5;entryDx=0;entryDy=0;entryPerimeter=0;" parent="1" source="0O328Vj98qlbeWY49ReV-3" target="0O328Vj98qlbeWY49ReV-17" edge="1">
          <mxGeometry relative="1" as="geometry" />
        </mxCell>
        <mxCell id="0O328Vj98qlbeWY49ReV-29" style="edgeStyle=orthogonalEdgeStyle;rounded=0;orthogonalLoop=1;jettySize=auto;html=1;" parent="1" target="0O328Vj98qlbeWY49ReV-27" edge="1">
          <mxGeometry relative="1" as="geometry">
            <mxPoint x="560" y="50" as="sourcePoint" />
          </mxGeometry>
        </mxCell>
        <mxCell id="0O328Vj98qlbeWY49ReV-28" style="edgeStyle=orthogonalEdgeStyle;rounded=0;orthogonalLoop=1;jettySize=auto;html=1;" parent="1" source="0O328Vj98qlbeWY49ReV-27" edge="1">
          <mxGeometry relative="1" as="geometry">
            <mxPoint x="560" y="50" as="targetPoint" />
          </mxGeometry>
        </mxCell>
        <mxCell id="0O328Vj98qlbeWY49ReV-27" value="Github" style="ellipse;whiteSpace=wrap;html=1;" parent="1" vertex="1">
          <mxGeometry x="660" y="10" width="120" height="80" as="geometry" />
        </mxCell>
        <mxCell id="0O328Vj98qlbeWY49ReV-38" value="Config&lt;div&gt;Server&lt;/div&gt;" style="whiteSpace=wrap;html=1;aspect=fixed;" parent="1" vertex="1">
          <mxGeometry x="500" y="20" width="60" height="60" as="geometry" />
        </mxCell>
        <mxCell id="0O328Vj98qlbeWY49ReV-39" style="edgeStyle=orthogonalEdgeStyle;rounded=0;orthogonalLoop=1;jettySize=auto;html=1;entryX=0.735;entryY=0.002;entryDx=0;entryDy=0;entryPerimeter=0;" parent="1" source="0O328Vj98qlbeWY49ReV-38" target="0O328Vj98qlbeWY49ReV-6" edge="1">
          <mxGeometry relative="1" as="geometry" />
        </mxCell>
        <mxCell id="0O328Vj98qlbeWY49ReV-52" value="&lt;b&gt;Legend&lt;/b&gt;&lt;div&gt;MS - Microservice&lt;/div&gt;&lt;div&gt;DB - Database&lt;/div&gt;" style="whiteSpace=wrap;html=1;aspect=fixed;" parent="1" vertex="1">
          <mxGeometry x="30" y="20" width="100" height="100" as="geometry" />
        </mxCell>
        <mxCell id="EOxNQlFkCzPFn4czWksW-4" style="edgeStyle=orthogonalEdgeStyle;rounded=0;orthogonalLoop=1;jettySize=auto;html=1;entryX=1;entryY=0.5;entryDx=0;entryDy=0;exitX=0;exitY=0.5;exitDx=0;exitDy=0;" parent="1" source="0O328Vj98qlbeWY49ReV-7" target="0O328Vj98qlbeWY49ReV-8" edge="1">
          <mxGeometry relative="1" as="geometry">
            <mxPoint x="280" y="365" as="sourcePoint" />
          </mxGeometry>
        </mxCell>
        <mxCell id="5Lq8C0aKSGUpn-JVYiwc-3" style="edgeStyle=orthogonalEdgeStyle;rounded=0;orthogonalLoop=1;jettySize=auto;html=1;" edge="1" parent="1" source="5Lq8C0aKSGUpn-JVYiwc-1" target="0O328Vj98qlbeWY49ReV-9">
          <mxGeometry relative="1" as="geometry" />
        </mxCell>
        <mxCell id="5Lq8C0aKSGUpn-JVYiwc-4" value="Gets Jwt" style="edgeLabel;html=1;align=center;verticalAlign=middle;resizable=0;points=[];" vertex="1" connectable="0" parent="5Lq8C0aKSGUpn-JVYiwc-3">
          <mxGeometry x="0.0769" relative="1" as="geometry">
            <mxPoint as="offset" />
          </mxGeometry>
        </mxCell>
        <mxCell id="5Lq8C0aKSGUpn-JVYiwc-1" value="&lt;div&gt;Identity Provider&lt;/div&gt;" style="whiteSpace=wrap;html=1;aspect=fixed;" vertex="1" parent="1">
          <mxGeometry x="10" y="510" width="80" height="80" as="geometry" />
        </mxCell>
      </root>
    </mxGraphModel>
  </diagram>
</mxfile>
